<svg width="38" height="40" viewBox="0 0 38 40" fill="none" xmlns="http://www.w3.org/2000/svg" aria-hidden="true"
    focusable="false">
    <path
        d="M29 40V34H23V31H29V25H32V31H38V34H32V40H29ZM3 36C2.2 36 1.5 35.7 0.9 35.1C0.3 34.5 0 33.8 0 33V3C0 2.2 0.3 1.5 0.9 0.9C1.5 0.3 2.2 0 3 0H33C33.8 0 34.5 0.3 35.1 0.9C35.7 1.5 36 2.2 36 3V22.4C35.5447 22.136 35.0642 21.92 34.5585 21.752C34.0528 21.584 33.5333 21.4333 33 21.3V3H3V33H19C19.0333 33.5333 19.0847 34.0487 19.154 34.546C19.223 35.043 19.3383 35.5277 19.5 36H3ZM9 27.7C9.4 27.7 9.75 27.55 10.05 27.25C10.35 26.95 10.5 26.6 10.5 26.2C10.5 25.8 10.35 25.45 10.05 25.15C9.75 24.85 9.4 24.7 9 24.7C8.6 24.7 8.25 24.85 7.95 25.15C7.65 25.45 7.5 25.8 7.5 26.2C7.5 26.6 7.65 26.95 7.95 27.25C8.25 27.55 8.6 27.7 9 27.7ZM9 19.5C9.4 19.5 9.75 19.35 10.05 19.05C10.35 18.75 10.5 18.4 10.5 18C10.5 17.6 10.35 17.25 10.05 16.95C9.75 16.65 9.4 16.5 9 16.5C8.6 16.5 8.25 16.65 7.95 16.95C7.65 17.25 7.5 17.6 7.5 18C7.5 18.4 7.65 18.75 7.95 19.05C8.25 19.35 8.6 19.5 9 19.5ZM9 11.3C9.4 11.3 9.75 11.15 10.05 10.85C10.35 10.55 10.5 10.2 10.5 9.8C10.5 9.4 10.35 9.05 10.05 8.75C9.75 8.45 9.4 8.3 9 8.3C8.6 8.3 8.25 8.45 7.95 8.75C7.65 9.05 7.5 9.4 7.5 9.8C7.5 10.2 7.65 10.55 7.95 10.85C8.25 11.15 8.6 11.3 9 11.3ZM15.6 19.5H27.8V16.5H15.6V19.5ZM15.6 11.3H27.8V8.3H15.6V11.3ZM15.6 27.7H20.05C20.3167 27.1333 20.625 26.6083 20.975 26.125C21.325 25.6417 21.7 25.1667 22.1 24.7H15.6V27.7Z"
        fill="#1C1B1F" />
</svg>
