<svg width="41" height="32" viewBox="0 0 41 32" fill="none" xmlns="http://www.w3.org/2000/svg">
<path d="M18.4 23.7L24 18.1L29.6 23.7L31.75 21.55L26.1 16L31.65 10.45L29.5 8.3L24 13.9L18.4 8.3L16.25 10.45L21.9 16L16.25 21.55L18.4 23.7ZM13.5 32C13.025 32 12.575 31.8937 12.15 31.681C11.725 31.4687 11.375 31.175 11.1 30.8L0 16L11.05 1.2C11.325 0.825 11.675 0.531166 12.1 0.3185C12.525 0.106166 12.975 0 13.45 0H37.05C37.875 0 38.5813 0.293666 39.169 0.881C39.7563 1.46867 40.05 2.175 40.05 3V29C40.05 29.825 39.7563 30.5312 39.169 31.1185C38.5813 31.7062 37.875 32 37.05 32H13.5ZM3.75 16L13.5 29H37.05V3H13.5L3.75 16Z" fill="#1C1B1F"/>
</svg>
