<svg width="40" height="43" viewBox="0 0 40 43" fill="none" xmlns="http://www.w3.org/2000/svg" aria-hidden="true"
    focusable="false">
    <path
        d="M0 43V38.431H40V43H0ZM7.2695 28.527H9.296L28.7885 9.03448L27.7845 8.01148L26.7615 7.00798L7.2695 26.481V28.527ZM5 30.796V25.5695L29.104 1.46548C29.3397 1.22948 29.5992 1.06082 29.8825 0.959485C30.1658 0.858485 30.4487 0.807983 30.731 0.807983C31.0007 0.807983 31.2795 0.858485 31.5675 0.959485C31.8558 1.06082 32.1077 1.22948 32.323 1.46548L34.3305 3.45399C34.5538 3.66932 34.7243 3.92165 34.842 4.21098C34.96 4.50032 35.019 4.78665 35.019 5.06999C35.019 5.34899 34.9592 5.63115 34.8395 5.91649C34.7195 6.20182 34.5498 6.46048 34.3305 6.69248L10.2075 30.796H5ZM28.7885 9.03448L27.7845 8.01148L26.7615 7.00798L28.7885 9.03448Z"
        fill="#1C1B1F" />
</svg>
