<?xml version="1.0" encoding="utf-8"?>
<!-- Generator: Adobe Illustrator 28.1.0, SVG Export Plug-In . SVG Version: 6.00 Build 0)  -->
<svg version="1.1" id="Ebene_2" xmlns="http://www.w3.org/2000/svg" xmlns:xlink="http://www.w3.org/1999/xlink" x="0px" y="0px"
	 viewBox="0 0 500 500" style="enable-background:new 0 0 500 500;" xml:space="preserve">
<style type="text/css">
	.st0{fill:#BE1622;}
</style>
<g>
	<path d="M250,263.3c-37.5,0-67.9-30.5-67.9-67.9s30.5-67.9,67.9-67.9s67.9,30.5,67.9,67.9S287.5,263.3,250,263.3z M250,135.8
		c-32.9,0-59.6,26.7-59.6,59.6S217.1,255,250,255c32.9,0,59.6-26.7,59.6-59.6S282.9,135.8,250,135.8z"/>
	<path d="M412.5,158c-1.1-2-3.7-2.7-5.7-1.5c-2,1.1-2.7,3.7-1.5,5.7c15.3,26.9,23.5,57.5,23.5,88.6c0,49.2-20,93.8-52.2,126.1
		l-10.5-43.5c-7.4-30.7-32.2-55.1-63.2-61.9c-1.1-0.2-2.2,0-3.1,0.6c-29.9,19.1-69.7,19.1-99.6,0c-0.9-0.6-2.1-0.8-3.1-0.6
		c-30.9,6.9-55.7,31.2-63.2,61.9l-10.2,42.3c-14.2-16.8-52.5-67.7-52.5-125C71.2,152.2,151.4,72,250,72c21.4,0,42.4,3.7,62.3,11.1
		c2.1,0.8,4.6-0.3,5.4-2.5c0.8-2.2-0.3-4.6-2.5-5.4c-20.8-7.7-42.7-11.7-65.2-11.7c-103.2,0-187.1,83.9-187.1,187.1
		c0,73.3,57.5,134.1,60,136.6c1.1,1.1,2.6,1.5,4.1,1.1c1.5-0.4,2.6-1.6,3-3l12.1-50.1c6.6-27.1,28.1-48.7,55.2-55.3
		c31.9,19.6,73.7,19.6,105.6,0c27.1,6.7,48.6,28.2,55.2,55.3l11.6,48.1c-31.7,28.6-73.7,46-119.6,46c-34.3,0-67.6-9.7-96.3-28.2
		c-1.9-1.3-4.5-0.7-5.8,1.3c-1.2,1.9-0.7,4.5,1.3,5.7c30.1,19.3,64.9,29.5,100.8,29.5c103.2,0,187.1-83.9,187.1-187.1
		C437.1,218.2,428.6,186.1,412.5,158z"/>
	<g>
		<path class="st0" d="M368.6,138.2c-4.3,0-8.5-1-12.4-3c-6.5-3.3-11.3-9-13.5-15.9c-2.2-6.9-1.6-14.3,1.7-20.8
			c3.3-6.5,9-11.3,15.9-13.5c6.9-2.2,14.3-1.6,20.8,1.7c6.5,3.3,11.3,9,13.5,15.9l0,0c2.2,6.9,1.6,14.3-1.7,20.8
			c-3.3,6.5-9,11.3-15.9,13.5C374.2,137.8,371.4,138.2,368.6,138.2z M368.6,89.9c-2.2,0-4.3,0.3-6.4,1c-5.3,1.7-9.7,5.4-12.3,10.4
			c-2.6,5-3,10.7-1.3,16c1.7,5.3,5.4,9.7,10.4,12.3c5,2.6,10.7,3,16,1.3c5.3-1.7,9.7-5.4,12.3-10.4c2.6-5,3-10.7,1.3-16v0
			c-1.7-5.3-5.4-9.7-10.4-12.3C375.2,90.7,371.9,89.9,368.6,89.9z"/>
		<path class="st0" d="M378.6,159.6c-2.4,0-4.6-1.5-5.4-3.9l-2-6.2c-3.6,0.8-7.8,0.4-11.8-0.6l-2.3,5.4c-1.4,2.8-4.8,3.8-7.6,2.4
			l-6.8-3.5c-2.8-1.4-3.8-4.8-2.4-7.6l3-5.8c-3.1-2-5.8-5.2-7.9-8.8l-5.5,2.2c-3,1-6.1-0.7-7.1-3.6l-2.4-7.3c-0.9-3,0.7-6.1,3.6-7.1
			l6.2-2c-0.8-3.6-0.4-7.7,0.6-11.8l-5.4-2.3c-1.3-0.7-2.3-1.9-2.8-3.3c-0.5-1.4-0.3-3,0.4-4.3l3.5-6.8c1.4-2.8,4.8-3.9,7.6-2.4
			l5.8,3c2-3.1,5.2-5.8,8.8-7.9l-2.2-5.5c-0.5-1.4-0.3-3,0.4-4.3c0.7-1.3,1.9-2.3,3.3-2.8l7.3-2.3c2.9-1,6.1,0.7,7.1,3.6l2,6.2
			c3.6-0.8,7.8-0.4,11.8,0.6l2.3-5.4c0.7-1.3,1.9-2.3,3.3-2.8c1.4-0.4,3-0.3,4.3,0.4l6.8,3.5c2.8,1.4,3.9,4.8,2.4,7.6l-3,5.8
			c3.1,2,5.8,5.2,7.9,8.8l5.5-2.2c1.4-0.5,2.9-0.3,4.3,0.4c1.3,0.7,2.3,1.9,2.8,3.3l2.4,7.3c0.5,1.4,0.3,3-0.4,4.3
			c-0.7,1.3-1.9,2.3-3.3,2.8l-6.2,2c0.8,3.6,0.4,7.8-0.6,11.8l5.4,2.3c2.8,1.4,3.9,4.8,2.4,7.6l-3.5,6.8c-0.7,1.3-1.9,2.3-3.3,2.8
			c-1.4,0.5-3,0.3-4.3-0.4l-5.8-3c-2,3.1-5.2,5.8-8.8,7.9l2.2,5.5c0.5,1.4,0.3,2.9-0.3,4.3c-0.7,1.3-1.9,2.3-3.3,2.8l-7.3,2.4
			C379.8,159.5,379.2,159.6,378.6,159.6z M371.8,143.7c2.5,0,4.6,1.5,5.4,3.9l1.8,5.6l6.2-2l-1.8-5.6c-0.8-2.5,0.2-5.2,2.5-6.6
			c3-1.8,5.7-4.1,7.9-6.7c1.7-2,4.6-2.6,6.9-1.4l5.2,2.7l3-5.8l-5.2-2.7c-2.3-1.2-3.5-3.8-2.9-6.4c0.8-3.4,1.1-6.9,0.8-10.4
			c-0.2-2.7,1.4-5.1,3.9-5.9l5.6-1.8l-2-6.2l-5.6,1.8c-2.5,0.8-5.2-0.2-6.6-2.5c-1.8-3-4.1-5.7-6.7-8c-2-1.7-2.6-4.6-1.4-6.9
			l2.7-5.2l-5.7-3l-2.7,5.2c-1.2,2.3-3.9,3.5-6.4,2.9c-3.4-0.8-6.9-1.1-10.4-0.8c-2.6,0.2-5.1-1.4-5.9-3.9l-1.8-5.6l-6.2,2l1.8,5.6
			c0.8,2.5-0.2,5.2-2.5,6.6c-3,1.8-5.7,4.1-8,6.7c-1.7,2-4.6,2.6-6.9,1.4l-5.2-2.7l-3,5.8l5.2,2.7c2.3,1.2,3.5,3.8,2.9,6.4
			c-0.8,3.4-1.1,6.9-0.9,10.4c0.2,2.6-1.4,5.1-3.9,5.9l-5.6,1.8l2,6.2l5.6-1.8c2.5-0.8,5.2,0.2,6.6,2.5c1.8,3,4.1,5.7,6.7,7.9
			c2,1.7,2.6,4.6,1.4,6.9l-2.7,5.2l5.7,3l2.7-5.2c1.2-2.3,3.8-3.5,6.4-2.9c3.4,0.8,6.9,1.1,10.4,0.8
			C371.5,143.7,371.6,143.7,371.8,143.7z M385.7,151L385.7,151L385.7,151z"/>
	</g>
</g>
</svg>
